<?xml version="1.0" encoding="UTF-8"?>
<svg version="1.1" xmlns="http://www.w3.org/2000/svg" width="500" height="500">
<path d="M0 0 C165 0 330 0 500 0 C500 165 500 330 500 500 C335 500 170 500 0 500 C0 335 0 170 0 0 Z " fill="#000000" transform="translate(0,0)"/>
<path d="M0 0 C3.92421219 3.6409504 6.75135819 7.4634014 9.5 12.0625 C10.37456226 13.49325244 11.2509541 14.92288769 12.12890625 16.3515625 C12.82330811 17.48319824 12.82330811 17.48319824 13.53173828 18.63769531 C16.10496735 22.77779582 18.77247592 26.856116 21.4375 30.9375 C21.9855127 31.77796875 22.53352539 32.6184375 23.09814453 33.484375 C24.19680531 35.16913939 25.29576086 36.85371159 26.39501953 38.53808594 C30.21320022 44.39487542 34.00872628 50.26630026 37.79833984 56.14160156 C38.94017693 57.90748209 40.08842665 59.66902104 41.23828125 61.4296875 C41.88152344 62.42226563 42.52476562 63.41484375 43.1875 64.4375 C43.73792969 65.28183594 44.28835937 66.12617188 44.85546875 66.99609375 C46 69 46 69 46 71 C42.45818457 71.73232176 39.52361488 71.90040186 36 71 C32.59686437 67.74844645 30.48731479 63.82702483 28.1875 59.75 C27.15720981 58.03211428 26.12688914 56.31424348 25.09301758 54.59851074 C24.05057212 52.85902603 23.02364382 51.11107412 21.99853516 49.36132812 C19.09690199 44.48108315 15.99750074 39.74074442 12.875 35 C11.87204591 33.45856096 10.86942556 31.9169047 9.8671875 30.375 C6.94160197 25.89652581 3.97545795 21.44545241 1 17 C-1.88247303 19.74553188 -4.2169346 22.54496508 -6.46875 25.82421875 C-7.44134766 27.23272095 -7.44134766 27.23272095 -8.43359375 28.66967773 C-9.11550781 29.66555908 -9.79742187 30.66144043 -10.5 31.6875 C-11.92658254 33.75555388 -13.35367106 35.82325881 -14.78125 37.890625 C-15.48894531 38.91736328 -16.19664063 39.94410156 -16.92578125 41.00195312 C-21.56372983 47.70557936 -26.28989835 54.34698142 -31 61 C-16.15 61.495 -16.15 61.495 -1 62 C-0.34 60.35 0.32 58.7 1 57 C2.23681641 55.05541992 2.23681641 55.05541992 3.6015625 53.23046875 C4.09140625 52.56982422 4.58125 51.90917969 5.0859375 51.22851562 C5.59382813 50.55498047 6.10171875 49.88144531 6.625 49.1875 C7.3984375 48.14819336 7.3984375 48.14819336 8.1875 47.08789062 C9.45342926 45.38826337 10.72605265 43.69362565 12 42 C14.5625 44.1875 14.5625 44.1875 17 47 C16.23766888 55.21412437 10.85390399 63.23359624 5.39752197 69.15435791 C-2.31941973 75.09495515 -14.20942583 72.81930065 -23.3125 72.1875 C-25.70995028 72.09205571 -28.10776691 72.00538752 -30.50585938 71.92773438 C-36.34531347 71.71966741 -42.17093392 71.40313437 -48 71 C-46.79270321 67.73906853 -45.49171839 65.03062759 -43.41796875 62.2421875 C-42.90516357 61.54456299 -42.3923584 60.84693848 -41.86401367 60.12817383 C-41.31076416 59.38462646 -40.75751465 58.6410791 -40.1875 57.875 C-35.57958615 51.59043314 -31.06594491 45.25915163 -26.6875 38.8125 C-20.97853348 30.41234009 -15.19313342 22.06764872 -9.37963867 13.73950195 C-6.206138 9.18926495 -3.05039659 4.63380855 0 0 Z " fill="#52A7F5" transform="translate(124,222)"/>
<path d="M0 0 C2.78919836 2.64457326 4.96253667 5.24250827 6.99609375 8.5 C7.54773193 9.37648193 8.09937012 10.25296387 8.66772461 11.15600586 C9.25175049 12.09452393 9.83577637 13.03304199 10.4375 14 C11.69709024 16.00182233 12.95752442 18.00311384 14.21875 20.00390625 C14.85296875 21.01211426 15.4871875 22.02032227 16.140625 23.05908203 C18.86981839 27.3757658 21.64860461 31.6592287 24.4375 35.9375 C25.21311279 37.13028564 25.21311279 37.13028564 26.00439453 38.34716797 C29.03703346 43.00599115 32.08769697 47.65255932 35.1484375 52.29296875 C35.84138916 53.34685791 36.53434082 54.40074707 37.24829102 55.48657227 C38.604274 57.54821169 39.96402524 59.60737852 41.32788086 61.66381836 C41.93768799 62.59202393 42.54749512 63.52022949 43.17578125 64.4765625 C43.99429565 65.715271 43.99429565 65.715271 44.8293457 66.97900391 C46 69 46 69 46 71 C42.48168981 71.67030298 39.50109996 71.83795152 36 71 C32.73791315 68.0108522 30.74394515 64.38167121 28.5625 60.5625 C27.26954901 58.44009335 25.97658013 56.31769759 24.68359375 54.1953125 C23.74749268 52.61411621 23.74749268 52.61411621 22.79248047 51.00097656 C20.34641247 46.90576165 17.74574685 42.92214323 15.125 38.9375 C12.52476454 34.93260027 9.94272399 30.91713579 7.39453125 26.87890625 C6.97993652 26.2247876 6.5653418 25.57066895 6.13818359 24.89672852 C5.3595905 23.6667794 4.58492531 22.43433156 3.81494141 21.19897461 C1.91975937 18.07142959 1.91975937 18.07142959 -1 16 C-1.23460937 16.68449219 -1.46921875 17.36898437 -1.7109375 18.07421875 C-3.27672623 21.62808469 -5.38052475 24.66672766 -7.625 27.8125 C-8.04523438 28.40998047 -8.46546875 29.00746094 -8.8984375 29.62304688 C-9.92779728 31.08520565 -10.9632823 32.54304899 -12 34 C-14.69378051 31.48580485 -16.44805246 29.32759923 -18 26 C-12.03619407 17.3077259 -6.07022413 8.61847522 0 0 Z " fill="#53A8F6" transform="translate(165,222)"/>
<path d="M0 0 C1.04800781 0.00290039 1.04800781 0.00290039 2.1171875 0.00585938 C6.53308748 0.11833985 9.54742607 0.77632361 13 3.5625 C15.68061883 7.0772691 15.3319565 11.19598375 15.3125 15.4375 C15.32861328 16.13230469 15.34472656 16.82710937 15.36132812 17.54296875 C15.36581375 22.30670616 14.48371448 25.51362238 12 29.5625 C8.86620986 32.69629014 5.38975075 31.9308259 1.125 31.9375 C0.30902344 31.96199219 -0.50695312 31.98648437 -1.34765625 32.01171875 C-7.367669 32.04118048 -7.367669 32.04118048 -10.5078125 29.6640625 C-13.6054659 25.30139881 -13.28926723 21.52661118 -13.375 16.3125 C-13.43107422 15.04212891 -13.43107422 15.04212891 -13.48828125 13.74609375 C-13.54608547 9.61630307 -13.41233784 6.43113638 -10.9765625 2.98828125 C-7.28382849 -0.02115158 -4.56518285 -0.24005113 0 0 Z " fill="#EEEEEE" transform="translate(348,225.4375)"/>
<path d="M0 0 C1.98 0 3.96 0 6 0 C6.84003448 2.7481128 7.67222151 5.49819581 8.5 8.25 C8.73847656 9.02730469 8.97695313 9.80460938 9.22265625 10.60546875 C9.56103516 11.73662109 9.56103516 11.73662109 9.90625 12.890625 C10.11572266 13.58188477 10.32519531 14.27314453 10.54101562 14.98535156 C11 17 11 17 11 21 C11.66 21 12.32 21 13 21 C13.37125 19.14375 13.37125 19.14375 13.75 17.25 C15.04818352 11.35173142 17.01439968 5.69655237 19 0 C21.31 0 23.62 0 26 0 C27.98 6.6 29.96 13.2 32 20 C33.8128488 15.16573654 35.57494966 10.3932562 37.1875 5.5 C37.53167969 4.4584375 37.87585938 3.416875 38.23046875 2.34375 C38.48441406 1.5703125 38.73835938 0.796875 39 0 C40.98 0 42.96 0 45 0 C44.47497829 7.00028944 42.4212414 12.96248377 39.9375 19.5 C39.56044922 20.51320312 39.18339844 21.52640625 38.79492188 22.5703125 C37.87093913 25.04986114 36.9391731 27.52617401 36 30 C33.03 30.495 33.03 30.495 30 31 C26.97760518 27.57174073 26.0281834 24.19368891 24.875 19.8125 C24.06547746 15.59010251 24.06547746 15.59010251 22 12 C21.67386719 13.12019531 21.34773438 14.24039063 21.01171875 15.39453125 C20.57081483 16.86733797 20.12938079 18.33998607 19.6875 19.8125 C19.47416016 20.55048828 19.26082031 21.28847656 19.04101562 22.04882812 C18.82509766 22.76103516 18.60917969 23.47324219 18.38671875 24.20703125 C18.19295654 24.8616333 17.99919434 25.51623535 17.79956055 26.19067383 C16.85352685 28.3314542 15.81035882 29.52613701 14 31 C11.5625 31.1875 11.5625 31.1875 9 30 C5.52487248 24.79432001 3.83644515 18.73658547 2.25 12.75 C2.02957031 11.96109375 1.80914062 11.1721875 1.58203125 10.359375 C0.58149712 6.68039236 0 3.87068107 0 0 Z " fill="#F1F1F1" transform="translate(371,226)"/>
<path d="M0 0 C3.625 0.3125 3.625 0.3125 5.18359375 1.91796875 C6.93471538 4.82701363 8.11806741 7.75952021 9.3125 10.9375 C9.74949219 12.08476562 10.18648437 13.23203125 10.63671875 14.4140625 C11.625 17.3125 11.625 17.3125 11.625 19.3125 C12.285 19.3125 12.945 19.3125 13.625 19.3125 C13.79515625 18.6834375 13.9653125 18.054375 14.140625 17.40625 C17.93592437 4.00157563 17.93592437 4.00157563 21.625 0.3125 C25.125 0.1875 25.125 0.1875 28.625 0.3125 C29.625 1.3125 29.625 1.3125 29.73852539 4.17993164 C29.73328857 5.43153076 29.72805176 6.68312988 29.72265625 7.97265625 C29.7212413 8.63712265 29.71982635 9.30158905 29.71836853 9.9861908 C29.71275518 12.11583899 29.70020054 14.24538339 29.6875 16.375 C29.68248671 17.81575369 29.67792351 19.25650903 29.67382812 20.69726562 C29.66278145 24.23571102 29.64550792 27.77409539 29.625 31.3125 C27.975 31.3125 26.325 31.3125 24.625 31.3125 C24.295 24.0525 23.965 16.7925 23.625 9.3125 C21.40577851 14.8148925 21.40577851 14.8148925 19.19775391 20.32177734 C18.91851074 21.0070752 18.63926758 21.69237305 18.3515625 22.3984375 C17.92738037 23.4510376 17.92738037 23.4510376 17.49462891 24.52490234 C16.625 26.3125 16.625 26.3125 14.625 28.3125 C12 28.4375 12 28.4375 9.625 28.3125 C6.57345152 22.42737079 4.02812694 16.49196927 1.625 10.3125 C1.295 17.2425 0.965 24.1725 0.625 31.3125 C-1.025 31.3125 -2.675 31.3125 -4.375 31.3125 C-4.39965622 27.05835377 -4.41783899 22.80424502 -4.42993164 18.55004883 C-4.43497101 17.10179927 -4.44180253 15.65355483 -4.45043945 14.20532227 C-4.46252247 12.12775412 -4.46823211 10.05025303 -4.47265625 7.97265625 C-4.47789307 6.72105713 -4.48312988 5.46945801 -4.48852539 4.17993164 C-4.32512308 0.05270565 -4.19949179 0.38884183 0 0 Z " fill="#F6F6F6" transform="translate(205.375,225.6875)"/>
<path d="M0 0 C0.91644287 0.00523682 1.83288574 0.01047363 2.77709961 0.01586914 C3.76645508 0.0190918 4.75581055 0.02231445 5.77514648 0.02563477 C6.81606445 0.03401367 7.85698242 0.04239258 8.92944336 0.05102539 C10.49662109 0.05779297 10.49662109 0.05779297 12.09545898 0.06469727 C14.68600996 0.07652627 17.27644895 0.0930085 19.86694336 0.11352539 C19.86694336 1.76352539 19.86694336 3.41352539 19.86694336 5.11352539 C13.92694336 5.11352539 7.98694336 5.11352539 1.86694336 5.11352539 C2.52694336 6.76352539 3.18694336 8.41352539 3.86694336 10.11352539 C5.0103418 10.17411133 6.15374023 10.23469727 7.33178711 10.29711914 C8.82268641 10.38150967 10.31357111 10.46615841 11.80444336 10.55102539 C12.9365625 10.61 12.9365625 10.61 14.09155273 10.67016602 C19.75366211 11.00024414 19.75366211 11.00024414 20.86694336 12.11352539 C20.90775119 14.11310903 20.90948692 16.11397793 20.86694336 18.11352539 C17.7839292 18.22996695 14.70148213 18.30084971 11.61694336 18.36352539 C10.30790039 18.41379883 10.30790039 18.41379883 8.97241211 18.46508789 C2.47418184 18.56429751 2.47418184 18.56429751 -0.67993164 16.22290039 C-3.06555894 12.75989302 -3.26898527 10.74215323 -3.25805664 6.55102539 C-3.26063477 5.55973633 -3.26321289 4.56844727 -3.26586914 3.54711914 C-3.09764902 0.46473274 -3.07183139 0.16348879 0 0 Z " fill="#F5F5F5" transform="translate(246.133056640625,238.886474609375)"/>
<path d="M0 0 C1.93166016 0.01740234 1.93166016 0.01740234 3.90234375 0.03515625 C5.19269531 0.04417969 6.48304688 0.05320313 7.8125 0.0625 C8.81152344 0.07410156 9.81054688 0.08570313 10.83984375 0.09765625 C12.35699214 3.13195302 11.98348291 6.27367292 11.96484375 9.59765625 C11.97064453 10.63212891 11.97064453 10.63212891 11.9765625 11.6875 C11.96651021 16.84432332 11.96651021 16.84432332 10.83984375 19.09765625 C8.52740583 19.12451037 6.21488105 19.14398466 3.90234375 19.16015625 C2.61457031 19.17175781 1.32679688 19.18335938 0 19.1953125 C-3.16015625 19.09765625 -3.16015625 19.09765625 -4.16015625 18.09765625 C-4.260026 15.25430577 -4.29893506 12.44068462 -4.28515625 9.59765625 C-4.28902344 8.79972656 -4.29289062 8.00179687 -4.296875 7.1796875 C-4.28491019 0.13241379 -4.28491019 0.13241379 0 0 Z " fill="#020202" transform="translate(345.16015625,231.90234375)"/>
<path d="M0 0 C1.65 0 3.3 0 5 0 C5.33 7.92 5.66 15.84 6 24 C10.89118777 24.28915269 10.89118777 24.28915269 15.78295898 24.56811523 C20.88888889 24.88888889 20.88888889 24.88888889 22 26 C22.04063832 27.66617115 22.042721 29.33388095 22 31 C19.10190611 31.16250994 16.21295149 31.28107636 13.3125 31.375 C12.08756836 31.45041016 12.08756836 31.45041016 10.83789062 31.52734375 C6.47273055 31.63338003 4.5460847 31.40241491 0.94140625 28.74609375 C-2.30741812 23.99473202 -1.56391031 18.19521254 -1.375 12.6875 C-1.36082031 11.57826172 -1.34664063 10.46902344 -1.33203125 9.32617188 C-1.18242163 1.18242163 -1.18242163 1.18242163 0 0 Z " fill="#ECECEC" transform="translate(275,226)"/>
<path d="M0 0 C1.65 0 3.3 0 5 0 C5.33 8.25 5.66 16.5 6 25 C11.28 25 16.56 25 22 25 C22 26.98 22 28.96 22 31 C19.24940619 31.08107646 16.50120979 31.14052813 13.75 31.1875 C12.97269531 31.21263672 12.19539063 31.23777344 11.39453125 31.26367188 C7.91590141 31.30826969 5.62718756 31.3343028 2.515625 29.67578125 C-0.35518052 26.50161741 -0.11832628 23.31027794 -0.09765625 19.23828125 C-0.09443359 18.12001953 -0.09121094 17.00175781 -0.08789062 15.84960938 C-0.07951172 14.68236328 -0.07113281 13.51511719 -0.0625 12.3125 C-0.05573242 10.54422852 -0.05573242 10.54422852 -0.04882812 8.74023438 C-0.03703273 5.82677211 -0.0205727 2.91341137 0 0 Z " fill="#F5F5F5" transform="translate(305,226)"/>
<path d="M0 0 C7.59 0 15.18 0 23 0 C23.33 1.65 23.66 3.3 24 5 C23 6 23 6 20.77514648 6.11352539 C19.81680908 6.10828857 18.85847168 6.10305176 17.87109375 6.09765625 C16.31938477 6.09282227 16.31938477 6.09282227 14.73632812 6.08789062 C13.64771484 6.07951172 12.55910156 6.07113281 11.4375 6.0625 C9.7987793 6.05573242 9.7987793 6.05573242 8.12695312 6.04882812 C5.41791505 6.03699826 2.70898401 6.02051543 0 6 C0 4.02 0 2.04 0 0 Z " fill="#EAEAEA" transform="translate(243,226)"/>
<path d="M0 0 C6.15234375 -0.09765625 6.15234375 -0.09765625 8 0 C9 1 9 1 9 4.9375 C8.979375 5.64777344 8.95875 6.35804688 8.9375 7.08984375 C8.86973661 9.087577 8.86973661 9.087577 10 11 C9.01 11 8.02 11 7 11 C6.34 10.01 5.68 9.02 5 8 C4.01 7.67 3.02 7.34 2 7 C2 8.32 2 9.64 2 11 C1.34 11 0.68 11 0 11 C0 7.37 0 3.74 0 0 Z " fill="#858585" transform="translate(331,275)"/>
<path d="M0 0 C6.0546875 -0.1953125 6.0546875 -0.1953125 8 0 C8.66 0.66 9.32 1.32 10 2 C9.46428571 5.53571429 9.46428571 5.53571429 8 7 C6.00041636 7.04080783 3.99954746 7.04254356 2 7 C2 8.32 2 9.64 2 11 C1.34 11 0.68 11 0 11 C0 7.37 0 3.74 0 0 Z " fill="#7D7D7D" transform="translate(295,275)"/>
<path d="M0 0 C4 2 4 2 5 4 C5.66 4 6.32 4 7 4 C7.495 3.34 7.99 2.68 8.5 2 C8.995 1.34 9.49 0.68 10 0 C10.66 0 11.32 0 12 0 C12 3.63 12 7.26 12 11 C11.34 11 10.68 11 10 11 C9.67 9.02 9.34 7.04 9 5 C8.01 6.485 8.01 6.485 7 8 C6.01 7.67 5.02 7.34 4 7 C3.67 6.34 3.34 5.68 3 5 C2.67 6.98 2.34 8.96 2 11 C1.34 11 0.68 11 0 11 C0 7.37 0 3.74 0 0 Z " fill="#DDDDDD" transform="translate(273,275)"/>
<path d="M0 0 C2.97 0 5.94 0 9 0 C9 0.66 9 1.32 9 2 C6.69 2 4.38 2 2 2 C2 2.66 2 3.32 2 4 C3.98 4 5.96 4 8 4 C8 4.66 8 5.32 8 6 C6.02 6 4.04 6 2 6 C2 6.99 2 7.98 2 9 C4.31 9 6.62 9 9 9 C9 9.66 9 10.32 9 11 C6.03 11 3.06 11 0 11 C0 7.37 0 3.74 0 0 Z " fill="#CECECE" transform="translate(350,275)"/>
<path d="M0 0 C2.64 0 5.28 0 8 0 C8 0.66 8 1.32 8 2 C6.02 2 4.04 2 2 2 C2 2.66 2 3.32 2 4 C3.65 4 5.3 4 7 4 C7 4.66 7 5.32 7 6 C5.35 6 3.7 6 2 6 C2 6.99 2 7.98 2 9 C3.98 9 5.96 9 8 9 C8 9.66 8 10.32 8 11 C5.36 11 2.72 11 0 11 C0 7.37 0 3.74 0 0 Z " fill="#D2D2D2" transform="translate(255,275)"/>
<path d="M0 0 C2.31 0 4.62 0 7 0 C6.01 0.33 5.02 0.66 4 1 C4 3.64 4 6.28 4 9 C4.99 9 5.98 9 7 9 C7 9.66 7 10.32 7 11 C4.69 11 2.38 11 0 11 C0 10.34 0 9.68 0 9 C0.66 9 1.32 9 2 9 C2 6.69 2 4.38 2 2 C1.34 2 0.68 2 0 2 C0 1.34 0 0.68 0 0 Z " fill="#D9D9D9" transform="translate(314,275)"/>
<path d="M0 0 C0.33 1.32 0.66 2.64 1 4 C3.31 4 5.62 4 8 4 C8.66 5.98 9.32 7.96 10 10 C9.01 10 8.02 10 7 10 C6.34 9.01 5.68 8.02 5 7 C4.01 6.67 3.02 6.34 2 6 C2 7.32 2 8.64 2 10 C1.34 10 0.68 10 0 10 C0 6.7 0 3.4 0 0 Z " fill="#DFDFDF" transform="translate(331,276)"/>
<path d="M0 0 C2 2 2 2 2 5 C3.98 5 5.96 5 8 5 C8 5.66 8 6.32 8 7 C6.02 7 4.04 7 2 7 C2 8.32 2 9.64 2 11 C1.34 11 0.68 11 0 11 C0 7.37 0 3.74 0 0 Z " fill="#DDDDDD" transform="translate(295,275)"/>
</svg>
