<?xml version="1.0" encoding="UTF-8"?>
<svg version="1.1" xmlns="http://www.w3.org/2000/svg" width="500" height="500">
<path d="M0 0 C165 0 330 0 500 0 C500 165 500 330 500 500 C335 500 170 500 0 500 C0 335 0 170 0 0 Z " fill="#FEFEFE" transform="translate(0,0)"/>
<path d="M0 0 C3.92421219 3.6409504 6.75135819 7.4634014 9.5 12.0625 C10.37456226 13.49325244 11.2509541 14.92288769 12.12890625 16.3515625 C12.82330811 17.48319824 12.82330811 17.48319824 13.53173828 18.63769531 C16.10496735 22.77779582 18.77247592 26.856116 21.4375 30.9375 C21.9855127 31.77796875 22.53352539 32.6184375 23.09814453 33.484375 C24.19680531 35.16913939 25.29576086 36.85371159 26.39501953 38.53808594 C30.21320022 44.39487542 34.00872628 50.26630026 37.79833984 56.14160156 C38.94017693 57.90748209 40.08842665 59.66902104 41.23828125 61.4296875 C41.88152344 62.42226563 42.52476562 63.41484375 43.1875 64.4375 C43.73792969 65.28183594 44.28835937 66.12617188 44.85546875 66.99609375 C46 69 46 69 46 71 C42.45818457 71.73232176 39.52361488 71.90040186 36 71 C32.59686437 67.74844645 30.48731479 63.82702483 28.1875 59.75 C27.15720981 58.03211428 26.12688914 56.31424348 25.09301758 54.59851074 C24.05057212 52.85902603 23.02364382 51.11107412 21.99853516 49.36132812 C19.09690199 44.48108315 15.99750074 39.74074442 12.875 35 C11.87204591 33.45856096 10.86942556 31.9169047 9.8671875 30.375 C6.94160197 25.89652581 3.97545795 21.44545241 1 17 C-1.88247303 19.74553188 -4.2169346 22.54496508 -6.46875 25.82421875 C-7.44134766 27.23272095 -7.44134766 27.23272095 -8.43359375 28.66967773 C-9.11550781 29.66555908 -9.79742187 30.66144043 -10.5 31.6875 C-11.92658254 33.75555388 -13.35367106 35.82325881 -14.78125 37.890625 C-15.48894531 38.91736328 -16.19664063 39.94410156 -16.92578125 41.00195312 C-21.56372983 47.70557936 -26.28989835 54.34698142 -31 61 C-16.15 61.495 -16.15 61.495 -1 62 C-0.34 60.35 0.32 58.7 1 57 C2.23681641 55.05541992 2.23681641 55.05541992 3.6015625 53.23046875 C4.09140625 52.56982422 4.58125 51.90917969 5.0859375 51.22851562 C5.59382813 50.55498047 6.10171875 49.88144531 6.625 49.1875 C7.3984375 48.14819336 7.3984375 48.14819336 8.1875 47.08789062 C9.45342926 45.38826337 10.72605265 43.69362565 12 42 C14.5625 44.1875 14.5625 44.1875 17 47 C16.23766888 55.21412437 10.85390399 63.23359624 5.39752197 69.15435791 C-2.31941973 75.09495515 -14.20942583 72.81930065 -23.3125 72.1875 C-25.70995028 72.09205571 -28.10776691 72.00538752 -30.50585938 71.92773438 C-36.34531347 71.71966741 -42.17093392 71.40313437 -48 71 C-46.79270321 67.73906853 -45.49171839 65.03062759 -43.41796875 62.2421875 C-42.90516357 61.54456299 -42.3923584 60.84693848 -41.86401367 60.12817383 C-41.31076416 59.38462646 -40.75751465 58.6410791 -40.1875 57.875 C-35.57958615 51.59043314 -31.06594491 45.25915163 -26.6875 38.8125 C-20.97853348 30.41234009 -15.19313342 22.06764872 -9.37963867 13.73950195 C-6.206138 9.18926495 -3.05039659 4.63380855 0 0 Z " fill="#5BB0FF" transform="translate(124,222)"/>
<path d="M0 0 C2.82359084 2.67339578 5.00679069 5.31162412 7.06640625 8.60546875 C7.6286792 9.49790283 8.19095215 10.39033691 8.77026367 11.30981445 C9.36170166 12.25945068 9.95313965 13.20908691 10.5625 14.1875 C11.81977514 16.18523412 13.07759322 18.18262664 14.3359375 20.1796875 C14.95694336 21.16807617 15.57794922 22.15646484 16.21777344 23.17480469 C18.67741357 27.0738397 21.17652661 30.94639083 23.6875 34.8125 C24.12545898 35.48756592 24.56341797 36.16263184 25.01464844 36.8581543 C25.89333133 38.21238453 26.7722365 39.56647058 27.65136719 40.92041016 C29.07504856 43.11572478 30.4949876 45.31342389 31.9140625 47.51171875 C32.39617187 48.25824707 32.87828125 49.00477539 33.375 49.77392578 C34.31805423 51.23431445 35.26077401 52.69491916 36.203125 54.15576172 C39.09385493 58.62815199 42.03562293 63.05972766 45.07421875 67.43359375 C46 69 46 69 46 71 C42.49699056 71.63181327 39.48707839 71.79553362 36 71 C32.83439711 68.1876101 30.95666997 64.71787828 28.875 61.0625 C27.5954574 58.9606907 26.31549401 56.85913752 25.03515625 54.7578125 C24.38047363 53.65469727 23.72579102 52.55158203 23.05126953 51.41503906 C19.60192202 45.67242148 15.9445249 40.06559642 12.3125 34.4375 C10.99520505 32.37426505 9.67874503 30.31049669 8.36328125 28.24609375 C7.242483 26.49720642 6.12142719 24.7484841 5 23 C4.58024902 22.33758301 4.16049805 21.67516602 3.72802734 20.99267578 C1.85602579 17.98353727 1.85602579 17.98353727 -1 16 C-1.23460937 16.68449219 -1.46921875 17.36898437 -1.7109375 18.07421875 C-3.27672623 21.62808469 -5.38052475 24.66672766 -7.625 27.8125 C-8.04523438 28.40998047 -8.46546875 29.00746094 -8.8984375 29.62304688 C-9.92779728 31.08520565 -10.9632823 32.54304899 -12 34 C-14.69378051 31.48580485 -16.44805246 29.32759923 -18 26 C-12.03619407 17.3077259 -6.07022413 8.61847522 0 0 Z " fill="#5BB0FF" transform="translate(165,222)"/>
<path d="M0 0 C0.74636719 -0.01482422 1.49273437 -0.02964844 2.26171875 -0.04492188 C6.13443651 0.01334025 8.15975998 0.47324195 11.49609375 2.57421875 C14.40204744 7.08892653 14.19632188 10.92866162 14.0625 16.1875 C14.07345703 17.12464844 14.08441406 18.06179687 14.09570312 19.02734375 C14.05198265 23.13706805 13.79494549 26.06240333 12.02734375 29.80859375 C8.27811093 32.59589048 5.05454004 32.38459903 0.5 32.25 C-0.71042969 32.26643555 -0.71042969 32.26643555 -1.9453125 32.28320312 C-5.82527811 32.23518375 -7.85166402 32.18286921 -11 29.77734375 C-14.11875895 25.43219782 -13.78936998 21.64536234 -13.875 16.4375 C-13.93107422 15.16712891 -13.93107422 15.16712891 -13.98828125 13.87109375 C-14.04579126 9.76232295 -13.91525979 6.55716832 -11.5078125 3.12109375 C-7.54116045 -0.08828837 -4.95620991 -0.18403888 0 0 Z " fill="#0F0F0F" transform="translate(348.5,225.3125)"/>
<path d="M0 0 C1.65 0 3.3 0 5 0 C8.33707393 6.67414785 9.57511728 13.71389759 11 21 C11.66 21 12.32 21 13 21 C13.37125 19.14375 13.37125 19.14375 13.75 17.25 C15.04818352 11.35173142 17.01439968 5.69655237 19 0 C21.31 0 23.62 0 26 0 C26.34933594 1.19238281 26.69867188 2.38476562 27.05859375 3.61328125 C27.51820045 5.17969593 27.97783745 6.74610171 28.4375 8.3125 C28.66759766 9.09818359 28.89769531 9.88386719 29.13476562 10.69335938 C29.35712891 11.45068359 29.57949219 12.20800781 29.80859375 12.98828125 C30.01282959 13.68477783 30.21706543 14.38127441 30.42749023 15.09887695 C30.92222612 16.74173766 31.45743619 18.37230856 32 20 C34.5390378 13.39850171 36.79377637 6.71946282 39 0 C40.98 0 42.96 0 45 0 C43.83754035 10.5570315 39.82162242 20.18017165 36 30 C33.03 30.495 33.03 30.495 30 31 C26.97760518 27.57174073 26.0281834 24.19368891 24.875 19.8125 C24.06547746 15.59010251 24.06547746 15.59010251 22 12 C21.67386719 13.12019531 21.34773438 14.24039063 21.01171875 15.39453125 C20.57081483 16.86733797 20.12938079 18.33998607 19.6875 19.8125 C19.47416016 20.55048828 19.26082031 21.28847656 19.04101562 22.04882812 C18.82509766 22.76103516 18.60917969 23.47324219 18.38671875 24.20703125 C18.19295654 24.8616333 17.99919434 25.51623535 17.79956055 26.19067383 C16.8525134 28.33374755 15.81909854 29.53176196 14 31 C11.5 31.0625 11.5 31.0625 9 30 C6.11569175 25.1129147 4.49901427 19.82185298 2.8125 14.4375 C2.53986328 13.60025391 2.26722656 12.76300781 1.98632812 11.90039062 C0.70598493 7.84757495 -0.39626774 4.30610941 0 0 Z " fill="#0C0C0C" transform="translate(371,226)"/>
<path d="M0 0 C1.19625 0.12375 2.3925 0.2475 3.625 0.375 C6.11631118 3.79665044 7.68777497 7.6065148 9.3125 11.5 C9.96798828 13.05074219 9.96798828 13.05074219 10.63671875 14.6328125 C11.625 17.375 11.625 17.375 11.625 20.375 C12.285 20.375 12.945 20.375 13.625 20.375 C13.73972656 19.51390625 13.85445312 18.6528125 13.97265625 17.765625 C14.64088522 14.2924349 15.68555047 11.37737929 17.0625 8.125 C17.71025391 6.57039062 17.71025391 6.57039062 18.37109375 4.984375 C19.625 2.375 19.625 2.375 21.625 0.375 C26.95833333 0.04166667 26.95833333 0.04166667 29.625 1.375 C29.625 11.275 29.625 21.175 29.625 31.375 C27.975 31.375 26.325 31.375 24.625 31.375 C24.295 24.115 23.965 16.855 23.625 9.375 C21.40577851 14.8773925 21.40577851 14.8773925 19.19775391 20.38427734 C18.91851074 21.0695752 18.63926758 21.75487305 18.3515625 22.4609375 C17.92738037 23.5135376 17.92738037 23.5135376 17.49462891 24.58740234 C16.625 26.375 16.625 26.375 14.625 28.375 C12.1875 28.3125 12.1875 28.3125 9.625 27.375 C6.03722752 22.17179069 3.99257876 16.19796397 1.625 10.375 C1.295 17.305 0.965 24.235 0.625 31.375 C-1.025 31.375 -2.675 31.375 -4.375 31.375 C-4.39965622 27.12085377 -4.41783899 22.86674502 -4.42993164 18.61254883 C-4.43497101 17.16429927 -4.44180253 15.71605483 -4.45043945 14.26782227 C-4.46252247 12.19025412 -4.46823211 10.11275303 -4.47265625 8.03515625 C-4.47789307 6.78355713 -4.48312988 5.53195801 -4.48852539 4.24243164 C-4.32517252 0.1164543 -4.19164463 0.46573829 0 0 Z " fill="#080808" transform="translate(205.375,225.625)"/>
<path d="M0 0 C1.27875 0.00257813 2.5575 0.00515625 3.875 0.0078125 C5.15375 0.00523437 6.4325 0.00265625 7.75 0 C10.875 0.1328125 10.875 0.1328125 11.875 1.1328125 C11.97486975 3.97616298 12.01377881 6.78978413 12 9.6328125 C12.00580078 10.82970703 12.00580078 10.82970703 12.01171875 12.05078125 C12.00160767 18.00620483 12.00160767 18.00620483 10.875 19.1328125 C8.54339945 19.23190552 6.20870058 19.26251754 3.875 19.2578125 C2.59625 19.26039063 1.3175 19.26296875 0 19.265625 C-3.125 19.1328125 -3.125 19.1328125 -4.125 18.1328125 C-4.22486975 15.28946202 -4.26377881 12.47584087 -4.25 9.6328125 C-4.25386719 8.83488281 -4.25773437 8.03695312 -4.26171875 7.21484375 C-4.24977609 0.18061548 -4.24977609 0.18061548 0 0 Z " fill="#FCFCFC" transform="translate(345.125,231.8671875)"/>
<path d="M0 0 C0.91644287 0.00523682 1.83288574 0.01047363 2.77709961 0.01586914 C3.76645508 0.0190918 4.75581055 0.02231445 5.77514648 0.02563477 C6.81606445 0.03401367 7.85698242 0.04239258 8.92944336 0.05102539 C10.49662109 0.05779297 10.49662109 0.05779297 12.09545898 0.06469727 C14.68600996 0.07652627 17.27644895 0.0930085 19.86694336 0.11352539 C19.86694336 1.76352539 19.86694336 3.41352539 19.86694336 5.11352539 C13.92694336 5.11352539 7.98694336 5.11352539 1.86694336 5.11352539 C2.52694336 6.76352539 3.18694336 8.41352539 3.86694336 10.11352539 C9.14694336 10.44352539 14.42694336 10.77352539 19.86694336 11.11352539 C19.86694336 13.42352539 19.86694336 15.73352539 19.86694336 18.11352539 C16.94928445 18.22158683 14.03563211 18.30085416 11.11694336 18.36352539 C10.29194336 18.39704102 9.46694336 18.43055664 8.61694336 18.46508789 C2.46671458 18.56428513 2.46671458 18.56428513 -0.64868164 16.22290039 C-3.07909013 12.76916201 -3.26901975 10.75537923 -3.25805664 6.55102539 C-3.26063477 5.55973633 -3.26321289 4.56844727 -3.26586914 3.54711914 C-3.09764902 0.46473274 -3.07183139 0.16348879 0 0 Z " fill="#090909" transform="translate(246.133056640625,238.886474609375)"/>
<path d="M0 0 C1.65 0.33 3.3 0.66 5 1 C5.33 8.59 5.66 16.18 6 24 C10.89118777 24.28915269 10.89118777 24.28915269 15.78295898 24.56811523 C20.88888889 24.88888889 20.88888889 24.88888889 22 26 C22.04063832 27.66617115 22.042721 29.33388095 22 31 C19.10190611 31.16250994 16.21295149 31.28107636 13.3125 31.375 C12.08756836 31.45041016 12.08756836 31.45041016 10.83789062 31.52734375 C6.47273055 31.63338003 4.5460847 31.40241491 0.94140625 28.74609375 C-2.30741812 23.99473202 -1.56391031 18.19521254 -1.375 12.6875 C-1.36082031 11.57826172 -1.34664063 10.46902344 -1.33203125 9.32617188 C-1.18242163 1.18242163 -1.18242163 1.18242163 0 0 Z " fill="#151515" transform="translate(275,226)"/>
<path d="M0 0 C1.65 0 3.3 0 5 0 C5.33 8.25 5.66 16.5 6 25 C11.28 25 16.56 25 22 25 C22 26.98 22 28.96 22 31 C19.24940619 31.08107646 16.50120979 31.14052813 13.75 31.1875 C12.97269531 31.21263672 12.19539063 31.23777344 11.39453125 31.26367188 C7.91590141 31.30826969 5.62718756 31.3343028 2.515625 29.67578125 C-0.35518052 26.50161741 -0.11832628 23.31027794 -0.09765625 19.23828125 C-0.09443359 18.12001953 -0.09121094 17.00175781 -0.08789062 15.84960938 C-0.07951172 14.68236328 -0.07113281 13.51511719 -0.0625 12.3125 C-0.05573242 10.54422852 -0.05573242 10.54422852 -0.04882812 8.74023438 C-0.03703273 5.82677211 -0.0205727 2.91341137 0 0 Z " fill="#0B0B0B" transform="translate(305,226)"/>
<path d="M0 0 C7.59 0 15.18 0 23 0 C23 1.98 23 3.96 23 6 C15.41 6 7.82 6 0 6 C0 4.02 0 2.04 0 0 Z " fill="#161616" transform="translate(243,226)"/>
<path d="M0 0 C6.15234375 -0.09765625 6.15234375 -0.09765625 8 0 C9 1 9 1 9 4.9375 C8.979375 5.64777344 8.95875 6.35804688 8.9375 7.08984375 C8.86973661 9.087577 8.86973661 9.087577 10 11 C7.33333333 9.66666667 4.66666667 8.33333333 2 7 C2 8.32 2 9.64 2 11 C1.34 11 0.68 11 0 11 C0 7.37 0 3.74 0 0 Z " fill="#262626" transform="translate(331,275)"/>
<path d="M0 0 C6.0546875 -0.1953125 6.0546875 -0.1953125 8 0 C8.66 0.66 9.32 1.32 10 2 C9.625 4.125 9.625 4.125 9 6 C6.69 6.33 4.38 6.66 2 7 C2 8.32 2 9.64 2 11 C1.34 11 0.68 11 0 11 C0 7.37 0 3.74 0 0 Z " fill="#5E5E5E" transform="translate(295,275)"/>
<path d="M0 0 C4 2 4 2 5 4 C5.66 4 6.32 4 7 4 C7.495 3.34 7.99 2.68 8.5 2 C8.995 1.34 9.49 0.68 10 0 C10.66 0 11.32 0 12 0 C12 3.63 12 7.26 12 11 C11.34 11 10.68 11 10 11 C9.67 9.02 9.34 7.04 9 5 C8.01 6.485 8.01 6.485 7 8 C6.01 7.67 5.02 7.34 4 7 C3.67 6.34 3.34 5.68 3 5 C2.67 6.98 2.34 8.96 2 11 C1.34 11 0.68 11 0 11 C0 7.37 0 3.74 0 0 Z " fill="#282828" transform="translate(273,275)"/>
<path d="M0 0 C2.97 0 5.94 0 9 0 C9 0.66 9 1.32 9 2 C6.69 2 4.38 2 2 2 C2 2.66 2 3.32 2 4 C3.98 4 5.96 4 8 4 C8 4.66 8 5.32 8 6 C6.02 6 4.04 6 2 6 C2 6.99 2 7.98 2 9 C4.31 9 6.62 9 9 9 C9 9.66 9 10.32 9 11 C6.03 11 3.06 11 0 11 C0 7.37 0 3.74 0 0 Z " fill="#393939" transform="translate(350,275)"/>
<path d="M0 0 C2.64 0 5.28 0 8 0 C8 0.66 8 1.32 8 2 C6.02 2 4.04 2 2 2 C2 2.66 2 3.32 2 4 C3.65 4 5.3 4 7 4 C7 4.66 7 5.32 7 6 C5.35 6 3.7 6 2 6 C2 6.99 2 7.98 2 9 C3.98 9 5.96 9 8 9 C8 9.66 8 10.32 8 11 C5.36 11 2.72 11 0 11 C0 7.37 0 3.74 0 0 Z " fill="#333333" transform="translate(255,275)"/>
<path d="M0 0 C1.98 0 3.96 0 6 0 C6.33 1.32 6.66 2.64 7 4 C5.35 4 3.7 4 2 4 C2 5.98 2 7.96 2 10 C1.34 10 0.68 10 0 10 C0 6.7 0 3.4 0 0 Z " fill="#818181" transform="translate(331,276)"/>
<path d="M0 0 C1.98 0 3.96 0 6 0 C5.01 0.495 5.01 0.495 4 1 C4 3.64 4 6.28 4 9 C4.99 9 5.98 9 7 9 C7 9.66 7 10.32 7 11 C4.69 11 2.38 11 0 11 C0 10.34 0 9.68 0 9 C0.66 9 1.32 9 2 9 C2 6.69 2 4.38 2 2 C1.34 2 0.68 2 0 2 C0 1.34 0 0.68 0 0 Z " fill="#2B2B2B" transform="translate(314,275)"/>
</svg>
